<svg xmlns="http://www.w3.org/2000/svg" width="46" height="46" viewBox="0 0 46 46">
  <g fill="none" fill-rule="evenodd" transform="translate(10 8)">
    <path stroke="#4C4C4C" stroke-width="2" d="M25,8.41421356 L17.5857864,1 L2,1 C1.44771525,1 1,1.44771525 1,2 L1,28 C1,28.5522847 1.44771525,29 2,29 L24,29 C24.5522847,29 25,28.5522847 25,28 L25,8.41421356 Z"/>
    <path fill="#4C4C4C" fill-rule="nonzero" d="M23,9 L25,11 L17,11 C15.8954305,11 15,10.1045695 15,9 L15,1 L17,3 L17,9 L23,9 Z M13.0042552,21.5900416 L15.5334776,18.9367729 C16.6729702,17.7339751 18.5717718,17.6826562 19.7745696,18.8221488 C19.821064,18.8661961 19.8661359,18.911721 19.9097161,18.9586536 L25.9587462,25.3960706 L24.4931592,26.7569728 L18.4441291,20.3195558 C18.4296024,20.3039116 18.4145784,20.2887366 18.3990803,20.2740542 C17.9981477,19.8942233 17.3652138,19.9113296 16.9853829,20.3122622 L8.45190537,29.2642663 L7,27.888777 L11.6238918,23.0381053 L7.20710678,18.6213203 C6.81658249,18.2307961 6.18341751,18.2307961 5.79289322,18.6213203 L1.70710678,22.7071068 L0.292893219,21.2928932 L4.37867966,17.2071068 C5.55025253,16.0355339 7.44974747,16.0355339 8.62132034,17.2071068 L13.0042552,21.5900416 Z M24,9 L26,11 L17,11 C15.8954305,11 15,10.1045695 15,9 L15,0 L17,2 L17,9 L24,9 Z M7,9 C6.44771525,9 6,8.55228475 6,8 C6,7.44771525 6.44771525,7 7,7 C7.55228475,7 8,7.44771525 8,8 C8,8.55228475 7.55228475,9 7,9 Z"/>
  </g>
</svg>
