<svg xmlns="http://www.w3.org/2000/svg" width="62" height="62" viewBox="0 0 62 62">
  <g fill="none" fill-rule="evenodd" transform="translate(-2 -2)">
    <circle cx="33" cy="33" r="30" fill="#000" fill-opacity=".717" stroke="#FFF" stroke-opacity=".462" stroke-width="2"/>
    <path fill="#FFF" d="M35.4575397,30.5424603 L54.4575397,30.5424603 C55.5621092,30.5424603 56.4575397,31.4378908 56.4575397,32.5424603 C56.4575397,33.6470298 55.5621092,34.5424603 54.4575397,34.5424603 L35.4575397,34.5424603 L35.4575397,53.5424603 C35.4575397,54.6470298 34.5621092,55.5424603 33.4575397,55.5424603 C32.3529702,55.5424603 31.4575397,54.6470298 31.4575397,53.5424603 L31.4575397,34.5424603 L12.4575397,34.5424603 C11.3529702,34.5424603 10.4575397,33.6470298 10.4575397,32.5424603 C10.4575397,31.4378908 11.3529702,30.5424603 12.4575397,30.5424603 L31.4575397,30.5424603 L31.4575397,11.5424603 C31.4575397,10.4378908 32.3529702,9.54246032 33.4575397,9.54246032 C34.5621092,9.54246032 35.4575397,10.4378908 35.4575397,11.5424603 L35.4575397,30.5424603 Z" transform="rotate(-45 33.458 32.542)"/>
  </g>
</svg>
