<svg xmlns="http://www.w3.org/2000/svg" width="26" height="28" viewBox="0 0 26 28">
  <g fill="none" fill-rule="evenodd" transform="matrix(-1 0 0 1 26 0)">
    <path fill="#CBE8FF" d="M16.4940974,2.20004797 C16.4940974,2.20004797 12.8608174,1.10343086 12.7224507,4.04525577 C12.584084,6.98708067 11.7062225,11.6795749 8.67153857,12.8069133 C5.63685461,13.9342517 2,13.6277807 2,13.6277807 L2,26.9998478 L18.378596,26.9998478 C18.378596,26.9998478 21.4401482,27.0624904 22.1593869,24.6461927 C22.8786256,22.2298951 25,14.9480548 25,14.9480548 C25,14.9480548 24.8655058,11.6114537 22.340053,11.507862 C19.8146002,11.4042704 16.4940974,11.5728665 16.4940974,11.5728665 L16.4940974,2.20004797 Z"/>
    <path fill="#28A8FE" fill-rule="nonzero" d="M22.9618606,12.6681657 C22.6831456,12.5290603 22.375264,12.4368629 22.0658696,12.3853904 C21.8834123,12.3550359 21.692875,12.3454907 21.692875,12.3454907 L19.7154984,12.3454907 L18.8841015,12.3454907 L16.9530697,12.3454907 L16.0753279,12.3454907 C15.4765176,12.3454907 15.0342696,11.7963511 15.1714568,11.2231534 C15.1749561,11.2085325 15.1824769,11.1760245 15.1934475,11.1267969 C15.2123127,11.0421441 15.2334925,10.9430776 15.256416,10.8307694 C15.3224402,10.5072993 15.3886576,10.1446863 15.4505204,9.75239172 C15.6423596,8.53586975 15.7498702,7.31520285 15.7300548,6.18853604 C15.6798769,3.33551679 14.8778117,1.82627562 13.1876785,1.82627562 C12.1791718,1.82627562 11.3723403,2.51229617 11.3723403,4.33139605 C11.3723403,7.61961984 10.5908288,9.79629812 8.84205951,11.0671028 C8.38031678,11.4026444 7.85689126,11.6684226 7.27080674,11.8687245 C6.95769191,11.9757356 6.62655823,12.0641172 6.27657471,12.1347106 C5.77419958,12.2360421 5.28341051,11.9176996 5.18036666,11.4236726 C5.0773228,10.9296457 5.40104476,10.4470123 5.90341989,10.3456808 C6.1751561,10.2908703 6.42741502,10.2235408 6.66114982,10.1436589 C7.07523865,10.0021388 7.43188642,9.82104478 7.73835407,9.59833929 C8.92754695,8.7341705 9.51520377,7.0974193 9.51520377,4.33139605 C9.51520377,1.43988116 11.2086537,1.93295316e-14 13.1876785,0 C14.8128327,-1.55447282e-14 16.0194896,0.773928083 16.7421895,2.13382796 C17.3012786,3.18586249 17.5586231,4.5484073 17.5869136,6.15695464 C17.6087909,7.40085402 17.4925426,8.72072736 17.2857215,10.0322551 C17.2593164,10.1996996 17.2321491,10.3622091 17.2045114,10.5192151 C17.8426052,10.5192151 17.9422667,10.5192151 18.8841015,10.5192151 L19.7154984,10.5192151 C21.2434712,10.5192151 21.0324773,10.5192151 21.1847017,10.5192151 L21.692875,10.5192151 C21.8473668,10.5192151 22.0830119,10.5360164 22.3756517,10.5847015 C22.8580858,10.6649618 23.3420328,10.8098833 23.8023578,11.0396295 C25.5026512,11.8882386 26.348572,13.6023843 25.8651439,16.1470409 C25.8219177,16.3095361 25.8219177,16.3095361 25.7572604,16.5166424 C25.6657931,16.8139931 25.6657931,16.8139931 25.5362544,17.2350502 C25.3686202,17.7799232 25.1400535,18.5227924 24.8657834,19.4141689 C24.6523205,20.1079225 24.4999069,20.6032546 24.1950803,21.5939059 C23.9575888,22.3657192 23.9513853,22.3858795 23.8949113,22.5694094 C23.7520029,23.0989958 23.6166251,23.5595451 23.4828952,23.9683103 C22.8539518,25.8907683 22.1685155,26.9241375 21.0324773,27.4799372 C20.1013703,27.9354757 19.3336819,28.0001919 16.7655109,27.9999996 C16.7171417,27.999996 16.7171417,27.999996 16.6684198,27.9999948 C15.2078619,27.9999948 12.7257129,27.9899483 9.50850392,27.9723048 C8.78036314,27.9683116 8.02442943,27.9639801 7.24669804,27.9593612 C5.75041124,27.9504749 4.24392199,27.940954 2.80186534,27.9314332 C2.29714341,27.9281008 1.8365235,27.9250065 1.42933603,27.9222295 C1.20304211,27.9206823 1.20304211,27.9206823 1.05351,27.9196507 C0.944691445,27.9188968 0.944691445,27.9188968 0.921965368,27.9187379 C0.411720894,27.9151698 0,27.5074013 0,27.0056231 L0,11.4323529 C0,10.9280408 0.415734176,10.5192151 0.928568272,10.5192151 L3.64186847,10.5192151 C4.15470257,10.5192151 4.57043674,10.9280408 4.57043674,11.4323529 C4.57043674,11.936665 4.15470257,12.3454907 3.64186847,12.3454907 L1.85713654,12.3454907 L1.85713654,26.098812 C2.15427081,26.1008166 2.47428857,26.1029536 2.81433362,26.1051987 C4.2559983,26.114717 5.7620794,26.1242353 7.25791355,26.1331189 C8.03536929,26.1377361 8.79101862,26.142066 9.51886058,26.1460576 C12.7326923,26.1636825 15.212401,26.1737191 16.6684198,26.1737191 C16.7172587,26.1737203 16.7172587,26.1737203 16.7656524,26.173724 C18.9879196,26.1738904 19.6460964,26.118406 20.2052526,25.8448422 C20.7942928,25.5566578 21.2246291,24.9078795 21.714998,23.408995 C21.8392605,23.0291684 21.9672095,22.5934677 22.1038898,22.0861979 C22.1736791,21.8574844 22.1736791,21.8574844 22.4175388,21.0649756 C22.7223634,20.074331 22.8747754,19.5790038 23.0881523,18.8855298 C23.3625011,17.9938975 23.5910628,17.2510445 23.7586901,16.7061939 C23.8882193,16.2851676 23.8882193,16.2851676 23.979662,15.987897 C24.0168124,15.867112 24.0168124,15.867112 24.0415722,15.7865887 C24.3638374,14.0420896 23.9133153,13.1430327 22.9618606,12.6681657 Z"/>
  </g>
</svg>
