<svg xmlns="http://www.w3.org/2000/svg" width="122" height="54" viewBox="0 0 122 54">
  <g fill="#239EFE" fill-rule="evenodd" transform="translate(16 7)">
    <text font-family="PingFangSC-Medium, PingFang SC" font-size="28" font-weight="400">
      <tspan x="33.5" y="30">关注</tspan>
    </text>
    <path d="M14,18 L14,8.5 C14,7.67157288 13.3284271,7 12.5,7 C11.6715729,7 11,7.67157288 11,8.5 L11,8.5 L11,18 L1.5,18 C0.671572875,18 0,18.6715729 0,19.5 C0,20.3284271 0.671572875,21 1.5,21 L11,21 L11,30.5 C11,31.3284271 11.6715729,32 12.5,32 C13.3284271,32 14,31.3284271 14,30.5 L14,21 L23.5,21 C24.3284271,21 25,20.3284271 25,19.5 C25,18.6715729 24.3284271,18 23.5,18 L14,18 Z"/>
  </g>
</svg>
