<svg xmlns="http://www.w3.org/2000/svg" width="34" height="28" viewBox="0 0 34 28">
  <path fill="#4C4C4C" fill-rule="evenodd" d="M4.61050529,17.5783847 L2.85057322,20.7533862 C2.58452122,21.2333567 1.97975048,21.4067719 1.49977996,21.1407199 C1.01980945,20.8746679 0.846394229,20.2698972 1.11244623,19.7899267 L3.90226504,14.7569603 C3.92284933,14.6807267 3.95291685,14.6057389 3.99291938,14.5335724 C4.16505057,14.2230395 4.47896512,14.0408268 4.8091333,14.0229293 C5.00007263,14.0058974 5.19796897,14.043827 5.37825692,14.1437623 C5.43629788,14.1759349 5.48985604,14.2130607 5.53869638,14.2543199 L10.6025433,17.0612561 C11.0825138,17.3273081 11.255929,17.9320788 10.989877,18.4120493 C10.723825,18.8920198 10.1190543,19.0654351 9.63908378,18.7993831 L7.58098487,17.6585602 C9.079182,21.9351662 13.1299515,25 17.8920038,25 C23.2498883,25 27.707362,21.1202361 28.6418999,16 L31.833204,16 C30.8689097,22.7845883 25.0711575,28 18.0630191,28 C11.6091027,28 6.18170128,23.5768677 4.61050529,17.5783847 Z M31.4582115,10.2095912 L33.1583685,7.26483291 C33.4327566,6.78957874 34.0404617,6.62674464 34.5157159,6.90113276 C34.99097,7.17552088 35.1538041,7.78322602 34.879416,8.25848019 L32.0021826,13.2419946 C31.9802771,13.3176998 31.9489485,13.3919964 31.9077752,13.4633106 C31.7325129,13.7668738 31.4212615,13.9429737 31.0953989,13.9590871 C30.900222,13.975591 30.6982046,13.9346959 30.5157159,13.829336 C30.4575447,13.7957508 30.404054,13.7571719 30.3554729,13.7144535 L25.3432721,10.820658 C24.868018,10.5462699 24.7051839,9.93856475 24.979572,9.46331059 C25.2539601,8.98805642 25.8616652,8.82522232 26.3369194,9.09961044 L28.1278533,10.1336066 C26.5727854,5.9658858 22.5765541,3 17.8920038,3 C12.5341193,3 8.07664555,6.87976392 7.14210768,12 L4.2928342,12 C5.25712846,5.21541172 11.0548806,0 18.0630191,0 C24.4406564,0 29.8159001,4.31919576 31.4582115,10.2095912 Z" transform="translate(-1)"/>
</svg>
