<svg xmlns="http://www.w3.org/2000/svg" width="239" height="282" viewBox="0 0 239 282">
  <defs>
    <filter id="箭头-a" width="141.3%" height="117.5%" x="-21.9%" y="-8.6%" filterUnits="objectBoundingBox">
      <feOffset in="SourceAlpha" result="shadowOffsetOuter1"/>
      <feGaussianBlur in="shadowOffsetOuter1" result="shadowBlurOuter1" stdDeviation="30"/>
      <feColorMatrix in="shadowBlurOuter1" result="shadowMatrixOuter1" values="0 0 0 0 1   0 0 0 0 1   0 0 0 0 1  0 0 0 0.583644701 0"/>
      <feMerge>
        <feMergeNode in="shadowMatrixOuter1"/>
        <feMergeNode in="SourceGraphic"/>
      </feMerge>
    </filter>
  </defs>
  <g fill="#FFF" filter="url(#箭头-a)" transform="translate(50 56)">
    <polygon points="132.339 141.243 136.661 143.757 119.481 173.285 90.382 158.736 92.618 154.264 117.519 166.715"/>
    <path d="M39.9607885,43.2377041 C32.0230701,51.447776 33.1413907,64.7776552 41.200377,73.210221 C49.5067846,81.9016775 60.7141394,80.9097463 69.9445195,67.5769751 C77.283912,56.9756303 73.9770569,45.7126048 59.6393798,33.8387758 C52.9287616,33.6668864 46.256999,36.7254626 39.9607885,43.2377041 Z M69.7374374,36.5142396 C80.1235497,47.8892953 81.6893108,59.3963812 74.0554805,70.4230249 C63.0363699,86.3395179 48.0955918,87.6618838 37.5856807,76.664779 C27.7899318,66.4149418 26.4171996,50.0525916 36.3661345,39.7622959 C41.9231051,34.0146585 47.7659854,30.5867466 53.6779225,29.3104748 C41.3093,20.6263759 23.1646611,11.6271971 -0.900754184,2.3320896 L0.900754184,-2.3320896 C28.3356596,8.26446117 48.4855672,18.6350036 61.3905611,28.8502863 C73.95172,30.0326699 86.4008152,40.5389644 96.6778805,58.7724673 C102.121892,68.4311974 104.74943,82.4439789 104.440749,95.8916359 C107.315107,97.2358563 109.977839,99.0134265 112.239488,101.204399 C123.70917,112.315653 125.610359,134.265746 118.44225,167.034242 L113.55775,165.965758 C120.389641,134.734254 118.624164,114.351013 108.760512,104.795601 C107.389836,103.467758 105.830303,102.321966 104.149011,101.365061 C103.870541,104.664681 103.407606,107.886961 102.758335,110.955083 C100.98432,119.338173 97.9719322,125.548018 93.8778359,128.364396 C88.824905,131.840368 83.0180614,129.899529 77.547828,123.061738 C67.4954371,110.496249 69.4358804,99.3808832 80.5384615,94.7548077 C86.1354084,92.4227465 93.0336549,92.2496505 99.4621018,94.0490469 C99.4994136,81.9861254 97.0657408,69.6436349 92.3221195,61.2275327 C85.3503478,48.8582603 77.6353492,40.4966834 69.7374374,36.5142396 Z M82.4615385,99.3701923 C74.6202246,102.637406 73.3647654,109.829004 81.452172,119.938262 C85.4657437,124.955227 88.5251223,125.977772 91.0440391,124.244979 C93.8275738,122.330152 96.3336984,117.163936 97.8666653,109.919917 C98.5854824,106.523153 99.0590852,102.915304 99.2922925,99.2222242 C93.602859,97.3548729 87.3395803,97.3376749 82.4615385,99.3701923 Z"/>
  </g>
</svg>
