<svg xmlns="http://www.w3.org/2000/svg" width="38" height="38" viewBox="0 0 38 38">
  <g fill="none" fill-rule="evenodd">
    <g fill="#A0A0A0" fill-rule="nonzero" transform="translate(3)">
      <path d="M22.0189111,2 L2.52447552,2 C2.23481569,2 2,2.23481569 2,2.52447552 L2,35.4755245 C2,35.7651843 2.23481569,36 2.52447552,36 L30.4755245,36 C30.7651843,36 31,35.7651843 31,35.4755245 L31,10.9629453 L22.0189111,2 Z M2.52447552,0 L22.8461538,0 L33,10.1333333 L33,35.4755245 C33,36.8697538 31.8697538,38 30.4755245,38 L2.52447552,38 C1.13024619,38 6.14833059e-16,36.8697538 4.4408921e-16,35.4755245 L0,2.52447552 C-1.70743849e-16,1.13024619 1.13024619,-6.32062646e-16 2.52447552,0 Z"/>
      <circle cx="8.615" cy="9.867" r="1"/>
    </g>
    <path fill="#A0A0A0" fill-rule="nonzero" d="M34 11L36 13 25 13C23.8954305 13 23 12.1045695 23 11L23 0 25 2 25 11 34 11zM34 11L36 13 25 13C23.8954305 13 23 12.1045695 23 11L23 0 25 2 25 11 34 11zM12.1936417 37.7203202L10.8063583 36.2796798 22.9284427 24.6065615C24.0845242 23.4932978 25.9120246 23.487112 27.0756161 24.5925239L35.6887495 32.7750006 34.3112505 34.2249994 25.6981172 26.0425227C25.3102534 25.6740521 24.7010865 25.6761141 24.315726 26.047202L12.1936417 37.7203202z"/>
    <path fill="#A0A0A0" fill-rule="nonzero" d="M4.6804511,28.7327935 L3.3195489,27.2672065 L8.95211847,22.0369633 C10.107201,20.9643867 11.8953455,20.9686544 13.0452952,22.0467322 L19.6839411,28.2704628 L18.3160589,29.7295372 L11.6774129,23.5058066 C11.2940963,23.1464473 10.6980482,23.1450248 10.3130207,23.5025503 L4.6804511,28.7327935 Z"/>
  </g>
</svg>
