<svg xmlns="http://www.w3.org/2000/svg" width="106" height="107" viewBox="0 0 106 107">
  <g fill="none" fill-rule="evenodd" transform="translate(-13 -13)">
    <path fill="#FF6168" d="M66.6701367,107.536851 C61.5164412,107.495737 56.5920704,106.492014 52.0679805,104.696636 L44.5229473,114.799346 L47.2219604,102.388789 C42.6151758,99.8058429 38.5647817,96.348472 35.2956223,92.2415204 L23.0006536,97.5229473 L32.068861,87.546444 C29.5630286,83.2875316 27.813848,78.5300013 27.0060811,73.4586149 L13,71.8 L26.5023916,67.4829088 C26.5007985,67.3348505 26.5,67.1866016 26.5,67.0381662 C26.5,62.2014679 27.3478495,57.5627954 28.9030322,53.262665 L17.2006536,44.5229473 L31.4490947,47.6216582 C33.7399092,43.4361517 36.748352,39.6994458 40.3089249,36.5770389 L34.4770527,23.0006536 L45.2986583,32.8370223 C50.3091839,29.6510913 56.0672585,27.5359371 62.2507647,26.8136769 L66.0507698,12.9694671 L70.0067086,26.6480858 C74.0272967,26.9431392 77.8848019,27.8251503 81.493888,29.2087826 L90.9411543,19.2006536 L88.1477044,32.4912234 C92.1259629,34.9316928 95.6503003,38.040059 98.5646212,41.6602266 L110.999346,37.9411543 L102.464113,47.4639163 C104.804973,51.69599 106.410304,56.391538 107.107626,61.3780808 L119,64.2 L107.489515,67.9689197 C107.370261,73.2573173 106.237313,78.2954814 104.277349,82.896736 L112.799346,90.9411543 L101.332784,88.5310795 C98.5566634,92.9563152 94.9487006,96.8066668 90.7280858,99.8629444 L94.0588457,110.999346 L85.3205633,103.16724 C81.1686719,105.276791 76.604434,106.691697 71.7808603,107.258949 L69.9467935,119.170131 L66.6701376,107.536854 Z"/>
    <text fill="#F2FF00" font-family="PingFangSC-Semibold, PingFang SC" font-size="46" font-weight="500" letter-spacing=".657" transform="rotate(-17 67.008 67.715)">
      <tspan x="43.508" y="84.215">奖</tspan>
    </text>
  </g>
</svg>
