<svg xmlns="http://www.w3.org/2000/svg" width="36" height="36" viewBox="0 0 36 36">
  <path fill="#949494" d="M29.4990305,16.5405405 C29.1928198,16.2772384 28.7925585,15.9389526 28.3998656,15.8727737 C28.1682852,15.8337464 27.5332644,15.6017707 27.5332644,15.6017707 L25.6451283,15.6017707 L23.9682826,15.6017707 L21.8364952,15.6017707 L20.3823529,15.6017707 C19.6223245,15.6017707 19.0819576,15.1667371 19.2560798,14.4297686 C19.2605212,14.4109703 19.2700668,14.3691743 19.283991,14.3058817 C19.3079354,14.1970425 19.3348174,14.0696712 19.3639126,13.925275 C19.4477126,13.5093848 19.8185406,12.8451007 19.8970588,12.3407219 C20.1405471,10.7766223 20.2770028,9.20719339 20.2518525,7.75862178 C20.1881652,4.09045418 18.8833763,1.94594595 16.7382074,1.94594595 C15.4581796,1.94594595 14.0735294,3.23009508 14.0735294,5.56893778 C14.0735294,9.79665408 13.3813566,12.2913832 11.1617647,13.925275 C10.5757066,14.3566856 9.91135886,14.6984004 9.16748235,14.9559315 C8.77006737,15.0935171 8.34978232,15.2071506 7.90557246,15.2979135 C7.26794248,15.4281969 6.70586719,15.3227566 6.57508076,14.6875791 C6.44429432,14.0524016 6.8551722,13.431873 7.49280217,13.3015896 C7.83769813,13.2311189 8.15787291,13.1445525 8.45453631,13.0418472 C8.9801106,12.8598927 9.43277891,12.6270576 9.82175709,12.3407219 C11.3311173,11.2296478 12.0769894,9.12525338 12.0769894,5.56893778 C12.0769894,1.85127578 14.2263682,2.48522549e-14 16.7382074,0 C18.8009031,-1.99860791e-14 20.3324291,0.995050393 21.249702,2.74349309 C21.9593152,4.09610891 22.2859447,5.84795224 22.3218519,7.91608454 C22.3496192,9.51538375 22.2020733,11.2123638 21.9395696,12.8986137 C21.9060554,13.1138994 21.8715739,13.3228403 21.8364952,13.5247051 C22.6463835,13.5247051 22.7728769,13.5247051 23.9682826,13.5247051 L25.0235172,13.5247051 C26.9628673,13.5247051 26.6950673,13.5247051 26.8882753,13.5247051 L27.5332644,13.5247051 C27.7293501,13.5247051 28.0284382,13.5463068 28.3998656,13.6089019 C29.0121859,13.7120937 29.6264262,13.8984213 30.2106849,14.1938093 C32.3687496,15.2848782 33.4424183,17.4887798 32.8288365,20.7604812 C32.7739724,20.9694035 32.7739724,20.9694035 32.6919075,21.235683 C32.5758143,21.6179911 32.5758143,21.6179911 32.4113998,22.1593503 C32.1986333,22.8599012 31.9085294,23.8150188 31.5604174,24.9610743 C31.2894837,25.8530432 31.0960357,26.4898988 30.7091403,27.7635934 C30.4077088,28.7559246 30.3998352,28.7818451 30.3281566,29.0178121 C30.1467729,29.6987089 29.9749473,30.2908438 29.8052131,30.816399 C29.0069388,33.2881307 28.1369619,34.6167482 26.6950673,35.3313479 C25.5132776,35.9170401 24.538904,36.0002467 21.2793023,35.9999995 C21.2179107,35.9999948 21.2179107,35.9999948 21.1560713,35.9999933 C19.3022863,35.9999933 16.1518663,35.9870763 12.0684857,35.9643919 C11.1443071,35.9592578 10.1848527,35.9536887 9.19773212,35.9477501 C7.29859888,35.9363249 5.38651637,35.9240838 3.55621371,35.9118426 C2.91560509,35.9075582 2.33097214,35.9035798 1.81415726,35.9000094 C1.52693806,35.8980201 1.52693806,35.8980201 1.3371473,35.8966938 C1.19903145,35.8957244 1.19903145,35.8957244 1.17018681,35.8955201 C0.522568827,35.8909326 0,35.3666589 0,34.7215155 L0,14.6987394 C0,14.0503381 0.686242491,13.6089019 1.3371473,13.6089019 L4.62237152,13.6089019 C5.27327633,13.6089019 5.80093894,14.0503381 5.80093894,14.6987394 C5.80093894,15.3471407 5.27327633,15.6017707 4.62237152,15.6017707 L1.81415726,15.6017707 L1.81415726,33.2290828 C1.81415726,33.5675676 2.35713484,34.0540541 3.55621371,34.0540541 L9.22833163,34.0540541 C10.2151174,34.0540541 12.1791418,34.0489221 13.1029412,34.0540541 C17.1820353,34.0767147 19.3080474,34.0540541 21.1560713,34.0540541 C21.2180592,34.0540556 21.8781469,34.0540494 21.9395696,34.0540541 C24.7601396,34.054268 24.93543,33.5808077 25.6451283,33.2290828 C26.3927563,32.8585601 27.1337895,31.6733198 27.7561807,29.7461826 C27.9138985,29.257834 28.0762953,28.6976474 28.2497742,28.0454435 C28.3383529,27.7513832 28.3383529,27.7513832 28.6478671,26.7324433 C29.0347599,25.4587574 29.228206,24.8219081 29.4990305,23.9302987 C29.8472423,22.7839144 30.1373399,21.8288176 30.3500976,21.1282954 C30.5145001,20.5869759 30.5145001,20.5869759 30.630562,20.2047709 C30.6777144,20.0494759 30.6777144,20.0494759 30.7091403,19.9459459 C31.1181692,17.7030184 30.630562,17.5135135 29.4990305,16.5405405 Z"/>
</svg>
