<svg xmlns="http://www.w3.org/2000/svg" width="46" height="46" viewBox="0 0 46 46">
  <path fill="#4C4C4C" fill-rule="evenodd" d="M30.9999991,24.0716831 L30.9999991,33.0000005 C30.9999991,33.552285 30.552284,34 29.9999995,34 C29.447715,34 29,33.552285 29,33.0000005 L29,23.9956542 L25.1609137,26.2121517 C24.6826471,26.488279 24.0710901,26.3244128 23.7949628,25.8461463 C23.5188355,25.3678798 23.6827017,24.7563227 24.1609682,24.4801954 L29.3572152,21.4801408 C29.5716071,21.3563616 29.8127832,21.3209968 30.0385222,21.3627334 C30.208976,21.3623063 30.3818164,21.4055001 30.5400641,21.4968645 L35.736311,24.4969191 C36.2145775,24.7730464 36.3784437,25.3846034 36.1023164,25.8628699 C35.8261891,26.3411364 35.2146321,26.5050026 34.7363656,26.2288753 L30.9999991,24.0716831 Z M10,12 L34,12 C34.5522847,12 35,12.4477153 35,13 C35,13.5522847 34.5522847,14 34,14 L10,14 C9.44771525,14 9,13.5522847 9,13 C9,12.4477153 9.44771525,12 10,12 Z M10,22.0000819 L22,22.0000819 C22.5522847,22.0000819 23,22.4477971 23,23.0000819 C23,23.5523666 22.5522847,24.0000819 22,24.0000819 L10,24.0000819 C9.44771525,24.0000819 9,23.5523666 9,23.0000819 C9,22.4477971 9.44771525,22.0000819 10,22.0000819 Z M10,32 L22,32 C22.5522847,32 23,32.4477153 23,33 C23,33.5522847 22.5522847,34 22,34 L10,34 C9.44771525,34 9,33.5522847 9,33 C9,32.4477153 9.44771525,32 10,32 Z"/>
</svg>
