<svg xmlns="http://www.w3.org/2000/svg" width="32" height="32" viewBox="0 0 32 32">
  <g fill="none" fill-rule="evenodd">
    <circle cx="16" cy="16" r="15" stroke="#FFF" stroke-width="2"/>
    <path fill="#FFF" d="M15.0546875,14 L10,14 C9.44771525,14 9,13.5522847 9,13 C9,12.4477153 9.44771525,12 10,12 L12.659032,12 L11.0343136,8.83346828 C10.8092724,8.39486909 10.9374325,7.85770077 11.3362481,7.56794422 L11.4523196,7.48361334 C11.8350229,7.20556317 12.3706693,7.29040123 12.6487195,7.67310447 C12.6746188,7.70875183 12.6977288,7.74634455 12.7178437,7.78554788 L14.8802405,12 L17.344101,12 L19.0166472,7.76502819 C19.1916076,7.32201948 19.6925706,7.10472341 20.1355793,7.27968385 C20.1750262,7.2952629 20.2132702,7.31373055 20.25,7.33493649 L20.3691398,7.40372189 C20.7982874,7.65149039 20.9812558,8.17617987 20.7992315,8.63707472 L19.4710886,12 L22,12 C22.5522847,12 23,12.4477153 23,13 C23,13.5522847 22.5522847,14 22,14 L17.0546875,14 L17.0546875,16 L22,16 C22.5522847,16 23,16.4477153 23,17 C23,17.5522847 22.5522847,18 22,18 L17.0546875,18 L17.0546875,25.0627441 C17.0546875,25.6150289 16.6069722,26.0627441 16.0546875,26.0627441 C15.5024028,26.0627441 15.0546875,25.6150289 15.0546875,25.0627441 L15.0546875,18 L10,18 C9.44771525,18 9,17.5522847 9,17 C9,16.4477153 9.44771525,16 10,16 L15.0546875,16 L15.0546875,14 Z"/>
  </g>
</svg>
