<svg xmlns="http://www.w3.org/2000/svg" width="38" height="38" viewBox="0 0 38 38">
  <g fill="none" fill-rule="evenodd" transform="translate(3.083 1.083)">
    <path fill="#C4E5FF" d="M20.2123181,2.80898981 C20.2123181,2.80898981 15.7599973,1.40884476 15.590439,5.16492477 C15.4208807,8.92100478 14.3451252,14.9123143 10.6263405,16.3516839 C6.90755581,17.7910535 2.4508547,17.3997557 2.4508547,17.3997557 L2.4508547,34.4730199 L22.5216342,34.4730199 C22.5216342,34.4730199 26.273344,34.5530011 27.1547188,31.4679068 C28.0360935,28.3828125 30.6356838,19.0854628 30.6356838,19.0854628 C30.6356838,19.0854628 30.4708709,14.8253382 27.3761119,14.6930739 C24.281353,14.5608095 20.2123181,14.7760707 20.2123181,14.7760707 L20.2123181,2.80898981 Z"/>
    <path fill="#239EFE" fill-rule="nonzero" d="M28.1380919,16.174533 C27.796547,15.9969252 27.4192605,15.8792089 27.0401202,15.8134896 C26.816532,15.7747333 26.5830423,15.7625461 26.5830423,15.7625461 L24.159911,15.7625461 L23.1410944,15.7625461 L20.7747552,15.7625461 L19.6991465,15.7625461 C18.965348,15.7625461 18.4234052,15.0614125 18.5915181,14.3295619 C18.5958063,14.3108942 18.6050224,14.2693884 18.6184661,14.2065353 C18.6415841,14.0984519 18.8576819,12.9525905 18.9334902,12.4517144 C19.1685753,10.8984766 19.3003217,9.33994649 19.2760394,7.9014344 C19.21455,4.25874019 18.2316773,2.91666667 16.160542,2.91666667 C14.9246902,2.91666667 13.9166667,3.59406593 13.9166667,5.91666667 C13.9166667,10.1150238 12.9782913,12.5077735 10.8353016,14.1303188 C10.2694694,14.5587334 9.62804944,14.8980753 8.90984544,15.1538179 C8.52614596,15.2904481 8.1203657,15.4032925 7.69148631,15.4934251 C7.07586209,15.6228037 6.47443575,15.2163486 6.34816299,14.585582 C6.22189023,13.9548155 6.30104244,13.0460453 6.91666667,12.9166667 C7.24965964,12.8466854 8.13024165,12.5186587 8.41666667,12.4166667 C8.92410245,12.2359757 9.54111282,11.7010139 9.91666667,11.4166667 C11.3739361,10.3133083 11.4166667,9.06188357 11.4166667,5.5302646 C11.4166667,1.8384197 13.7353908,2.46796698e-14 16.160542,0 C18.1520504,-1.98472869e-14 19.6307207,0.98814032 20.5163369,2.72444106 C21.20146,4.06766371 21.8819987,5.84766414 21.9166667,7.9014344 C21.9434756,9.48962737 21.6701109,11.2421268 21.4166667,12.9166667 C21.3843091,13.1304574 21.1666667,13.4307835 21.1666667,13.4307835 C21.1666667,13.4307835 21.9869443,13.4307835 23.1410944,13.4307835 L24.159911,13.4307835 C26.0323307,13.4307835 25.7737729,13.4307835 25.9603129,13.4307835 L26.5830423,13.4307835 C26.7723608,13.4307835 27.0611268,13.4522352 27.4197356,13.5143957 C28.0109236,13.6168708 28.6039654,13.8019045 29.1680602,14.0952412 C31.2516463,15.1787332 32.2882608,17.36733 31.6958548,20.6163112 C31.6428841,20.8237826 31.6428841,20.8237826 31.5636514,21.088213 C31.4515649,21.4678662 31.4515649,21.4678662 31.2928245,22.0054659 C31.087401,22.7011519 30.8073091,23.6496367 30.4712111,24.7877336 C30.2096278,25.6735082 30.0228561,26.3059411 29.6493131,27.5707906 C29.3582845,28.5562307 29.3506826,28.5819712 29.2814778,28.8162995 C29.106354,29.4924679 28.9404583,30.0804907 28.776582,30.6023962 C28.0058576,33.0569631 27.1659052,34.3763541 25.7737729,35.0859913 C24.6327689,35.6676162 23.6920226,35.750245 20.5449156,35.7499995 C20.4856427,35.7499948 20.4856427,35.7499948 20.4259375,35.7499933 C18.6361299,35.7499933 15.5944366,35.7371661 11.6519808,35.7146391 C10.7596971,35.7095407 9.8333553,35.7040103 8.88030198,35.698113 C7.04671121,35.6867671 5.20061808,35.674611 3.43348243,35.6624548 C2.81498236,35.6582002 2.25052613,35.6542494 1.75154746,35.6507038 C1.47424071,35.6487283 1.47424071,35.6487283 1.29099996,35.6474112 C1.15765073,35.6464486 1.15765073,35.6464486 1.12980158,35.6462457 C0.504534044,35.64169 0,35.1210571 0,34.4803938 L0,14.5966648 C0,13.9527663 0.416666667,12.9512788 1.75154746,12.9512788 L4.41666667,12.9512788 C5.04510759,12.9512788 5.41666667,13.6856634 5.41666667,14.3295619 C5.41666667,14.9734604 5.09128616,15.9166667 4.46284523,15.9166667 L2.91666667,15.9166667 L2.91666667,32.9166667 L20.4259375,32.9166667 C20.4857861,32.9166682 24.2314613,32.765949 24.9166667,32.4166667 C25.6384927,32.048717 26.009241,31.8020247 26.6101525,29.8882704 C26.7624271,29.4033132 26.9192193,28.8470168 27.0867111,28.199342 C27.1722329,27.9073238 27.1722329,27.9073238 27.4710652,26.8954599 C27.8446055,25.630619 28.0313755,24.9981923 28.2928533,24.1127746 C28.6290478,22.9743513 28.9091335,22.0258872 29.1145487,21.3302297 C29.2732773,20.7926694 29.2732773,20.7926694 29.3853337,20.4131185 C29.4308588,20.2589019 29.4308588,20.2589019 29.4612002,20.156091 C29.8561127,17.9287393 29.3040306,16.7808364 28.1380919,16.174533 Z"/>
  </g>
</svg>
