<svg xmlns="http://www.w3.org/2000/svg" width="31" height="26" viewBox="0 0 31 26">
  <path fill="#FFF" fill-rule="evenodd" d="M15,5 L2,5 L2,27 L29,27 L29,17 C29,16.4477153 29.4477153,16 30,16 C30.5522847,16 31,16.4477153 31,17 L31,28 C31,28.5522847 30.5522847,29 30,29 L1,29 C0.44771525,29 0,28.5522847 0,28 L0,4 C0,3.44771525 0.44771525,3 1,3 L15,3 C15.5522847,3 16,3.44771525 16,4 C16,4.55228475 15.5522847,5 15,5 Z M31,4 L31,12 C31,12.5522847 30.5522847,13 30,13 C29.4477153,13 29,12.5522847 29,12 L29,6.5147995 L16.7088684,18.8059311 C16.3183441,19.1964554 15.6851791,19.1964554 15.2946548,18.8059311 C14.9041306,18.4154068 14.9041306,17.7822418 15.2946548,17.3917175 L27.6863724,5 L22,5 C21.4477153,5 21,4.55228475 21,4 C21,3.44771525 21.4477153,3 22,3 L30,3 C30.5522847,3 31,3.44771525 31,4 Z" transform="translate(0 -3)"/>
</svg>
