<svg xmlns="http://www.w3.org/2000/svg" width="29" height="20" viewBox="0 0 29 20">
  <path fill="#239EFE" fill-rule="evenodd" d="M264.612783,52.0304312 L257.181981,44.599629 C256.596194,44.0138426 255.646447,44.0138426 255.06066,44.599629 C254.474874,45.1854154 254.474874,46.1351629 255.06066,46.7209493 L262.838835,54.4991239 C262.905813,54.566102 262.977549,54.6254218 263.052955,54.6770835 C263.092409,54.740196 263.139575,54.7998639 263.194451,54.8547406 L263.901552,55.5618414 C264.291272,55.9515614 264.922849,55.9524815 265.313703,55.5638987 L282.108572,38.8666168 L282.110635,38.8645594 C282.501159,38.4740352 282.501159,37.8408702 282.110635,37.4503459 L281.403534,36.7432451 C281.013814,36.3535252 280.382238,36.3526051 279.991384,36.7411878 L264.612783,52.0304312 Z" transform="translate(-254 -36)"/>
</svg>
