<svg xmlns="http://www.w3.org/2000/svg" width="46" height="46" viewBox="0 0 46 46">
  <path fill="none" stroke="#ffffff" stroke-width="2" d="M19,36 L19,27 C19,25.8954305 19.8954305,25 21,25 L25,25 C26.1045695,25 27,25.8954305 27,27 L27,36 L33,36 C33.5522847,36 34,35.5522847 34,35 L34,24 L36.3502627,24 C36.6061284,24 36.8522609,23.901923 37.0380073,23.7259527 C37.4389399,23.3461218 37.4560462,22.7131879 37.0762154,22.3122554 L23.7259527,8.22031143 C23.7135632,8.20723358 23.7008225,8.19449292 23.6877446,8.18210339 C23.2868121,7.80227251 22.6538782,7.81937883 22.2740473,8.22031143 L8.92378465,22.3122554 C8.74781436,22.4980018 8.64973733,22.7441343 8.64973733,23 C8.64973733,23.5522847 9.09745258,24 9.64973733,24 L12,24 L12,35 C12,35.5522847 12.4477153,36 13,36 L19,36 Z"/>
</svg>
